<svg height="38" viewBox="0 0 410 98" class="looka-1j8o68f svg-logo--wrapper"><defs id="SvgjsDefs4386"></defs><g id="SvgjsG4387" class="svg-logo--outerbox" featurekey="rootContainer" transform="matrix(1,0,0,1,0,0)" fill="#ffffff"><rect xmlns="http://www.w3.org/2000/svg" width="410" height="98" rx="10" ry="10"></rect></g><g id="SvgjsG4388" class="svg-logo--icon" featurekey="symbolFeature-0" transform="matrix(2.916666666666667,0,0,2.916666666666667,14.166666666666666,14.166666666666666)" fill="#000000"><g xmlns="http://www.w3.org/2000/svg"><path d="M6.955,5.111H6.417c-0.552,0-1,0.448-1,1s0.448,1,1,1h0.539c0.552,0,1-0.448,1-1S7.507,5.111,6.955,5.111z"></path><path d="M14.539,5.111H10c-0.552,0-1,0.448-1,1s0.448,1,1,1h4.539c0.552,0,1-0.448,1-1S15.091,5.111,14.539,5.111z"></path><path d="M9.402,11.972c-0.368-0.414-0.999-0.451-1.412-0.083l-2.676,2.378c-0.214,0.19-0.336,0.462-0.336,0.748   s0.122,0.558,0.335,0.747l2.675,2.379c0.19,0.169,0.428,0.253,0.664,0.253c0.276,0,0.55-0.113,0.748-0.335   c0.367-0.413,0.33-1.045-0.083-1.412l-1.834-1.632l1.834-1.63C9.731,13.017,9.769,12.385,9.402,11.972z"></path><path d="M14.599,18.042c0.197,0.222,0.472,0.335,0.748,0.335c0.236,0,0.474-0.083,0.664-0.253l2.675-2.379   c0.213-0.189,0.335-0.461,0.335-0.747s-0.122-0.558-0.335-0.748l-2.676-2.378c-0.414-0.368-1.045-0.33-1.412,0.083   c-0.367,0.413-0.33,1.045,0.083,1.412l1.835,1.631l-1.835,1.632C14.269,16.997,14.232,17.629,14.599,18.042z"></path><path d="M11.331,18.449c0.439,0,0.842-0.292,0.964-0.736l1.34-4.896c0.326-1.272-1.561-1.792-1.929-0.528   c0,0-1.34,4.896-1.34,4.896C10.184,17.809,10.684,18.457,11.331,18.449z"></path><path d="M17.002,2H7C4.243,2,2,4.243,2,6.999v3.296c0,0.552,0.448,1,1,1s1-0.448,1-1v-0.148h16v6.856   C20,18.655,18.655,20,17.002,20H7c-1.654,0-3-1.345-3-2.998v-3.297c0-0.552-0.448-1-1-1s-1,0.448-1,1v3.297C2,19.758,4.243,22,7,22   h10.002C19.758,22,22,19.758,22,17.002V6.999C22,4.243,19.758,2,17.002,2z M20,8.146H4V6.999C4,5.345,5.346,4,7,4h10.002   C18.655,4,20,5.345,20,6.999V8.146z"></path></g></g><g id="SvgjsG4389" class="svg-logo--text" featurekey="q4o0QG-0" transform="matrix(3.676162190270562,0,0,3.676162190270562,96.08839704587459,2.69271222233537)" fill="#323232"><path d="M6.72 5.52 l0.52 0.86 l0 2.44 l-0.06 1.24 l-2.68 -0.14 l0 -0.78 l0 -1.06 l-1.32 0.02 l-0.22 0.56 l0.22 2.72 l2.06 0.12 l2 0.24 l0.06 2.54 l0 1.8 l-0.26 3.14 l-1.8 0.88 l-2.64 -0.12 l-1.2 -0.48 l-0.6 -0.46 l-0.28 -1.46 l0.1 -2.48 l0.1 -0.8 l0.68 0.04 l1.56 0.18 l0 0.6 l0 0.66 l0 0.34 l0 0.54 l1.88 0.22 l0.06 -3.6 l-3.98 -0.22 l-0.16 -4.4 l-0.04 -2.88 l0.66 -0.48 c0.46 -0.02 0.86 -0.06 1.24 -0.1 c0.64 -0.06 1.28 -0.1 1.42 -0.1 c0.1 0 0.46 0.02 0.8 0.04 l0.64 0.04 z M17.18 19.98 l-3.36 0.06 l-1.18 -6.68 l-1.08 -0.02 l0 2.26 l0.24 4.28 l-0.24 0.1 l-2.58 -0.1 l-0.22 -0.96 l-0.08 -7.1 l0.4 -6.58 l2.66 0.1 l-0.18 3.62 l0 1.52 l0.88 0 l2.42 -5.12 l1.6 0 l0.36 0.16 l-2.8 5.72 z M17.960000000000004 19.92 l-0.04 -6.94 l0.08 -0.74 l-0.04 -0.74 l0.1 -4.42 l0.18 -1.72 l6.5 0.12 l0.1 3.9 l-4.26 0 l-0.08 2.5 l3.26 -0.06 l0 0.22 l0.1 1.7 l-3.04 0.06 l0.1 2.96 l4.06 0.2 l0 3.08 z M25.420000000000005 5.359999999999999 l4.06 -0.12 l2.12 0.08 l0.6 0.04 l-0.22 2.9 l-1.6 -0.1 l0.12 11.84 l-3.54 0.04 l0.18 -7.04 l0.08 -4.88 l-1.94 -0.18 z M38.080000000000005 12.6 l0 -4.04 l-2.42 0.04 c0 0.5 -0.16 1.4 -0.18 2.2 c0 0.46 -0.02 0.96 -0.06 1.48 l-0.12 1.74 l0 2.04 l0.2 1.16 l1.96 0.12 l0.42 -0.3 l0.12 -2.32 l0.36 0.04 l1.26 -0.04 l0.14 0.72 l-0.06 3 l0 1 l-1.24 0.52 l-0.38 0.06 l-0.34 0.04 l-3.02 -0.12 l-1.72 -0.64 l-0.64 -3.18 l0.24 -3 l0.18 -3.28 l0 -2.6 l0.74 -1.4 l0.68 -0.58 l2.32 0.06 l2.02 0 l1.22 0.54 l0.08 6.64 c-0.32 0.04 -1.44 0.1 -1.76 0.1 z M46.56000000000001 12.219999999999999 l-0.28 -6.92 l0.16 0 l1.7 0.04 l0.5 14.64 l-2.24 0.1 l-0.1 -5.82 l-2.16 0.12 l-0.14 5.62 l-2.36 0 l-0.82 -0.04 l0 -2.56 l-0.16 -4.62 l0.2 -7.48 l3.32 0.06 l-0.08 6.92 z M51.64000000000001 19.34 l-2.58 -13.92 l1.24 -0.18 l2.02 0.08 l1.26 11.94 l0.36 0.9 l0.82 -12.9 l2.68 -0.04 l0.78 0.06 l-2.14 12.92 l-0.48 1.8 l-3.76 0.2 z M59.14000000000001 8.88 l3.2 0.08 l-0.16 2.5 l0.24 5.08 l-0.14 3.38 l-0.28 0.04 l-2.8 -0.06 l-0.12 -0.92 l-0.04 -5.36 z M59.260000000000005 4.98 l3.02 0.04 l0.14 0.78 l0 1.34 l-0.08 0.72 l-3.2 0.02 l-0.1 -1.3 l-0.04 -1.4 z M63.940000000000005 5.26 l2.56 0.08 l2.16 10.14 l0.18 -1.06 l-0.58 -9.1 l2.22 -0.04 l0.88 0.2 l-0.4 14.4 l-1.78 0.24 l-1.78 -0.1 l-1.18 -8.78 l-0.42 -1.3 l0.06 10.04 l-2.06 0.18 l-0.1 -8.58 z M72.84000000000002 19.92 l-0.04 -6.94 l0.08 -0.74 l-0.04 -0.74 l0.1 -4.42 l0.18 -1.72 l6.5 0.12 l0.1 3.9 l-4.26 0 l-0.08 2.5 l3.26 -0.06 l0 0.22 l0.1 1.7 l-3.04 0.06 l0.1 2.96 l4.06 0.2 l0 3.08 z"></path></g></svg>